<svg version="1.1" viewBox='0 0 32 32' xmlns="http://www.w3.org/2000/svg" xmlns:xlink="http://www.w3.org/1999/xlink">
<path d="M3.558 8.041c-0.017 0.028-0.39 1.9-0.826 4.174-0.441 2.268-0.928 4.768-1.080 5.548-0.153 0.786-0.475 2.421-0.707 3.631-0.232 1.216-0.441 2.251-0.458 2.302-0.028 0.074 0.181 0.085 1.912 0.085h1.946l0.096-0.611c0.051-0.334 0.232-1.42 0.407-2.415 0.402-2.347 1.154-6.73 1.233-7.251 0.040-0.221 0.085-0.419 0.102-0.436s0.396 1.261 0.843 2.839c0.447 1.578 1.131 3.987 1.521 5.356l0.713 2.489h3.444l0.775-2.72c0.424-1.493 1.075-3.772 1.437-5.062s0.701-2.483 0.747-2.653c0.074-0.249 0.096-0.288 0.136-0.198 0.023 0.062 0.147 0.747 0.277 1.527 0.13 0.775 0.322 1.912 0.424 2.517 0.266 1.538 0.922 5.401 1.035 6.063l0.091 0.554h1.912c1.538 0 1.912-0.017 1.912-0.074 0-0.040-0.062-0.402-0.141-0.809-0.079-0.402-0.283-1.442-0.453-2.313-0.368-1.889-0.95-4.909-1.697-8.738-0.3-1.538-0.588-3.032-0.639-3.309l-0.096-0.509h-4.174l-0.096 0.339c-0.096 0.345-0.26 0.905-1.188 4.016-1.403 4.74-1.719 5.803-1.821 6.182-0.068 0.226-0.136 0.396-0.164 0.368-0.023-0.023-0.107-0.277-0.192-0.554-0.079-0.283-0.221-0.752-0.305-1.046-0.305-1.012-0.617-2.070-1.64-5.514-0.566-1.9-1.052-3.535-1.086-3.637l-0.062-0.181h-2.053c-1.131 0-2.070 0.017-2.081 0.040zM29.123 19.991c-0.645 0.113-1.21 0.554-1.499 1.176-0.13 0.277-0.153 0.396-0.153 0.831s0.023 0.554 0.153 0.831c0.198 0.424 0.532 0.781 0.928 0.979 0.272 0.136 0.413 0.17 0.837 0.187 0.707 0.028 1.063-0.102 1.538-0.577 0.436-0.436 0.588-0.809 0.588-1.42s-0.153-0.984-0.588-1.42c-0.498-0.498-1.137-0.701-1.804-0.588z"></path>
</svg>
